# xmcd
#
# Track frame offsets: 
#        150
#        15145
#        31620
#        49202
#        66355
#        81035
#        97625
#        120337
#        137077
#        155615
#        176187
#        189785
#
# Disc length: 3011 seconds
#
# Revision: 35
# Processed by: cddbd v1.5.2PL0 Copyright (c) Steve Scherf et al.
# Submitted via: ExactAudioCopy v0.95b4
#
DISCID=850bc10c
DTITLE=Matchbox Twenty - More Than You Think You Are
DYEAR=2002
DGENRE=Rock
TTITLE0=Feel
TTITLE1=Disease
TTITLE2=Bright Lights
TTITLE3=Unwell
TTITLE4=Cold
TTITLE5=All I Need
TTITLE6=Hand Me Down
TTITLE7=Could I Be You
TTITLE8=Downfall
TTITLE9=Soul
TTITLE10=You're So Real
TTITLE11=The Difference
EXTD=
EXTT0=
EXTT1=
EXTT2=
EXTT3=
EXTT4=
EXTT5=
EXTT6=
EXTT7=
EXTT8=
EXTT9=
EXTT10=
EXTT11=
PLAYORDER=
